<?xml version="1.0" standalone="no"?>
<!DOCTYPE svg PUBLIC "-//W3C//DTD SVG 20010904//EN"
 "http://www.w3.org/TR/2001/REC-SVG-20010904/DTD/svg10.dtd">
<svg version="1.0" xmlns="http://www.w3.org/2000/svg"
 width="100" height="52" viewBox="0 0 842.000000 596.000000"
 preserveAspectRatio="xMidYMid meet">

<g transform="translate(0.000000,596.000000) scale(0.100000,-0.100000)"
fill="#000000" stroke="none">
<path d="M2500 4095 l0 -595 30 0 c17 0 30 5 30 12 0 6 3 9 6 6 3 -3 -2 -32
-10 -64 -42 -163 -48 -236 -55 -581 l-6 -342 -663 1044 -664 1045 -349 0 -349
0 0 -1650 0 -1650 340 0 340 0 2 1026 3 1026 654 -1026 654 -1026 364 0 363 0
0 120 0 121 46 -32 c129 -89 348 -176 550 -219 128 -27 387 -38 517 -21 306
41 576 166 758 352 73 74 170 206 173 234 0 8 -109 91 -242 185 l-244 170 -53
-48 c-190 -174 -468 -269 -708 -242 -325 37 -628 228 -779 491 -139 240 -168
601 -73 894 119 366 385 576 775 615 209 21 496 -27 660 -110 221 -112 699
-514 1419 -1194 134 -126 271 -254 303 -284 l58 -54 0 -459 0 -459 343 2 342
3 3 590 2 590 -257 220 c-142 121 -352 312 -468 425 -259 253 -419 400 -616
567 -84 70 -169 143 -188 160 l-36 32 438 1 437 0 0 -324 0 -324 340 -281
c187 -154 342 -281 345 -281 3 0 5 272 5 605 l0 605 455 0 455 0 0 290 0 290
-1260 0 -1260 0 0 -275 0 -275 -112 84 c-310 229 -522 349 -771 435 -236 81
-459 112 -679 93 -378 -33 -641 -154 -898 -411 -170 -171 -279 -343 -361 -571
-40 -111 -47 -120 -25 -30 36 141 99 284 184 415 54 83 258 290 355 360 l67
49 0 133 0 133 -345 0 -345 0 0 -595z m630 447 l0 -88 -65 -48 c-139 -102
-281 -252 -368 -388 -41 -65 -103 -185 -123 -238 -11 -30 -13 34 -13 408 l-1
442 285 0 285 0 0 -88z m-1994 8 c6 -6 327 -510 715 -1120 l704 -1109 6 92 c3
51 6 85 7 76 5 -44 80 -247 127 -346 80 -168 161 -279 307 -425 l128 -127 0
-105 0 -106 -317 1 -318 0 -700 1100 -700 1099 -3 -1100 -2 -1100 -280 0 -280
0 0 1590 0 1590 298 0 c191 0 302 -4 308 -10z m3002 -1 c348 -38 674 -177
1050 -446 306 -219 670 -532 995 -852 l167 -166 0 -353 0 -354 -193 184 c-832
792 -1345 1224 -1591 1339 -145 68 -443 118 -626 105 -459 -31 -772 -292 -884
-736 -81 -320 -42 -629 113 -894 57 -99 190 -237 289 -301 100 -64 261 -139
352 -165 297 -81 606 -19 862 174 l87 65 200 -141 c227 -159 214 -136 135
-239 -199 -260 -581 -428 -974 -429 -540 -1 -1023 258 -1298 695 -88 141 -173
369 -216 577 -100 485 -17 961 232 1338 70 106 236 278 339 352 274 197 616
285 961 247z m3752 -289 l0 -230 -455 0 -455 0 0 -570 c0 -313 -3 -570 -6
-570 -3 0 -131 104 -285 231 l-279 232 0 338 0 339 -460 0 -460 0 0 230 0 230
1200 0 1200 0 0 -230z m-1177 -1495 l267 -229 0 -543 0 -543 -285 0 -285 0 0
786 c0 759 1 785 18 772 10 -7 139 -116 285 -243z"/>
</g>
</svg>
